<!DOCTYPE svg PUBLIC "-//W3C//DTD SVG 20010904//EN" "http://www.w3.org/TR/2001/REC-SVG-20010904/DTD/svg10.dtd">
<svg version="1.0" xmlns="http://www.w3.org/2000/svg" width="253px" height="77px" viewBox="0 0 2530 770" preserveAspectRatio="xMidYMid meet">
<g id="layer101" fill="#C53151" stroke="none">
 <path d="M1910 622 c-33 -27 -20 -65 35 -104 38 -27 44 -35 38 -57 -10 -44 -19 -43 -46 7 -31 58 -71 102 -90 102 -26 0 -42 -32 -40 -76 1 -24 0 -44 -1 -44 -1 0 -17 20 -35 45 -18 25 -40 45 -50 45 -24 0 -41 -20 -41 -49 l0 -24 -24 22 c-33 32 -70 25 -74 -13 l-4 -29 -36 35 c-45 43 -71 53 -79 32 -5 -12 -11 -10 -37 15 -55 53 -113 64 -156 31 -30 -24 -58 -25 -88 -4 -19 13 -23 13 -28 0 -11 -27 92 -168 219 -301 l57 -60 -60 -3 c-33 -2 -69 2 -81 8 -29 16 -33 7 -9 -23 19 -23 27 -25 123 -29 56 -2 110 -8 120 -12 40 -18 11 20 -90 120 -60 59 -99 101 -88 93 15 -10 13 -6 -6 16 -33 39 -101 136 -97 140 2 1 26 10 53 19 36 11 59 13 81 7 53 -15 84 -41 84 -70 0 -30 47 -128 65 -135 6 -2 18 0 26 5 12 7 12 12 1 29 -7 11 -21 43 -32 70 -28 70 -6 66 54 -10 29 -36 55 -60 67 -60 23 0 23 5 4 60 -22 63 -19 68 20 30 19 -19 35 -40 35 -48 0 -21 56 -72 79 -72 11 0 27 10 35 22 12 17 18 19 29 9 15 -12 47 -5 47 10 0 5 -6 25 -14 43 -20 48 -30 116 -17 116 6 0 29 -28 52 -62 24 -35 46 -64 51 -66 4 -2 8 -19 8 -37 0 -24 6 -38 20 -45 27 -14 41 -4 31 22 -7 19 3 105 13 115 6 6 81 -33 94 -50 10 -11 52 -120 52 -134 0 -1 -28 -3 -62 -4 -47 -1 -57 -3 -38 -9 14 -4 44 -8 67 -9 40 -1 44 -4 64 -44 32 -64 68 -107 89 -107 26 0 35 18 18 38 -15 18 -58 90 -58 98 0 2 18 4 41 4 24 0 38 4 34 10 -3 5 -24 10 -46 10 -39 0 -41 1 -65 57 -52 116 -96 273 -78 273 15 -1 131 -153 147 -192 11 -26 22 -38 36 -38 30 0 32 13 10 58 -11 23 -19 49 -17 59 4 15 14 9 51 -31 26 -27 50 -46 54 -43 8 9 -75 117 -91 117 -7 0 -23 -11 -35 -24 l-23 -25 -60 75 c-32 41 -66 78 -74 81 -9 3 -25 -3 -36 -15 -20 -19 -20 -24 -9 -82 7 -34 10 -64 8 -66 -2 -3 -18 3 -36 13 -28 16 -31 23 -31 66 0 37 -5 53 -25 72 -29 30 -73 33 -105 7z m66 -47 c8 -13 14 -31 12 -39 -2 -13 -9 -11 -35 10 -18 14 -33 32 -33 40 0 23 38 16 56 -11z m-203 -123 c27 -36 34 -54 30 -75 -8 -40 -21 -33 -48 26 -22 46 -33 97 -21 97 2 0 20 -21 39 -48z"/>
 <path d="M333 612 c-23 -15 -33 -61 -23 -105 17 -74 13 -84 -18 -41 -16 21 -43 54 -60 72 -30 32 -32 33 -60 18 -34 -18 -42 -33 -42 -86 0 -80 107 -332 147 -347 9 -4 22 1 29 12 12 16 12 22 -1 39 -46 61 -125 263 -125 318 0 62 44 19 162 -159 55 -84 88 -123 100 -123 28 0 32 26 10 57 -41 60 -116 292 -99 309 4 4 18 -3 32 -16 29 -27 33 -12 8 31 -17 29 -37 36 -60 21z"/>
 <path d="M879 549 c-6 -12 -9 -39 -7 -60 l4 -39 -39 45 c-44 52 -73 58 -88 18 l-10 -27 -29 32 c-33 36 -42 39 -64 16 -18 -18 -21 -85 -5 -115 24 -46 0 -38 -31 9 -18 29 -38 51 -44 49 -19 -6 -18 -55 3 -102 35 -79 5 -48 -43 45 -33 63 -51 88 -61 84 -23 -9 -28 -41 -15 -94 13 -56 36 -82 51 -59 11 18 11 26 -1 34 -5 3 -10 16 -10 28 1 17 7 11 25 -23 37 -69 69 -104 88 -97 19 7 22 48 7 78 -16 29 -4 23 33 -18 61 -66 86 -23 47 78 -30 76 -23 92 20 46 19 -21 43 -52 52 -69 40 -73 95 -100 118 -58 9 17 14 18 30 8 31 -20 47 3 32 45 -6 18 -15 55 -19 82 -6 45 -5 49 10 37 9 -8 33 -39 53 -70 46 -69 56 -54 13 19 -56 98 -96 123 -120 78z m-11 -164 c-2 -16 -7 -30 -13 -30 -12 0 -52 79 -60 120 -6 30 -6 29 35 -15 31 -35 40 -52 38 -75z"/>
 <path d="M2327 334 c-3 -4 0 -19 8 -35 8 -15 15 -37 15 -49 0 -13 7 -20 19 -20 24 0 35 28 19 47 -7 8 -17 24 -23 36 -11 22 -27 31 -38 21z"/>
 </g>

</svg>
